
<svg width="229" height="86" viewBox="0 0 229 86" fill="none" xmlns="http://www.w3.org/2000/svg">
<path d="M2.64205 80.8182V44.8182H10.892V49.3011H11.1477C11.4886 48.5057 11.9716 47.7386 12.5966 47C13.233 46.2614 14.0398 45.6591 15.017 45.1932C16.0057 44.7159 17.1875 44.4773 18.5625 44.4773C20.3807 44.4773 22.0795 44.9545 23.6591 45.9091C25.25 46.8636 26.5341 48.3352 27.5114 50.3239C28.4886 52.3125 28.9773 54.8466 28.9773 57.9261C28.9773 60.892 28.5057 63.375 27.5625 65.375C26.6307 67.375 25.3693 68.875 23.7784 69.875C22.1989 70.875 20.4432 71.375 18.5114 71.375C17.1932 71.375 16.0511 71.1591 15.0852 70.7273C14.1193 70.2955 13.3068 69.7273 12.6477 69.0227C12 68.3182 11.5 67.5625 11.1477 66.7557H10.9773V80.8182H2.64205ZM10.8068 57.9091C10.8068 59.3182 10.9943 60.5455 11.3693 61.5909C11.7557 62.6364 12.3068 63.4489 13.0227 64.0284C13.75 64.5966 14.6193 64.8807 15.6307 64.8807C16.6534 64.8807 17.5227 64.5966 18.2386 64.0284C18.9545 63.4489 19.4943 62.6364 19.858 61.5909C20.233 60.5455 20.4205 59.3182 20.4205 57.9091C20.4205 56.5 20.233 55.2784 19.858 54.2443C19.4943 53.2102 18.9545 52.4091 18.2386 51.8409C17.5341 51.2727 16.6648 50.9886 15.6307 50.9886C14.608 50.9886 13.7386 51.267 13.0227 51.8239C12.3068 52.3807 11.7557 53.1761 11.3693 54.2102C10.9943 55.2443 10.8068 56.4773 10.8068 57.9091ZM45.5838 71.4943C42.8452 71.4943 40.4815 70.9545 38.4929 69.875C36.5156 68.7841 34.9929 67.233 33.9247 65.2216C32.8679 63.1989 32.3395 60.7955 32.3395 58.0114C32.3395 55.3068 32.8736 52.9432 33.9418 50.9205C35.0099 48.8864 36.5156 47.3068 38.4588 46.1818C40.402 45.0455 42.6918 44.4773 45.3281 44.4773C47.1918 44.4773 48.8963 44.767 50.4418 45.3466C51.9872 45.9261 53.3224 46.7841 54.4474 47.9205C55.5724 49.0568 56.4474 50.4602 57.0724 52.1307C57.6974 53.7898 58.0099 55.6932 58.0099 57.8409V59.9205H35.2543V55.0795H50.2543C50.2429 54.1932 50.0327 53.4034 49.6236 52.7102C49.2145 52.017 48.652 51.4773 47.9361 51.0909C47.2315 50.6932 46.419 50.4943 45.4986 50.4943C44.5668 50.4943 43.7315 50.7045 42.9929 51.125C42.2543 51.5341 41.669 52.0966 41.2372 52.8125C40.8054 53.517 40.5781 54.3182 40.5554 55.2159V60.142C40.5554 61.2102 40.7656 62.1477 41.1861 62.9545C41.6065 63.75 42.2031 64.3693 42.9759 64.8125C43.7486 65.2557 44.669 65.4773 45.7372 65.4773C46.4759 65.4773 47.1463 65.375 47.7486 65.1705C48.3509 64.9659 48.8679 64.6648 49.2997 64.267C49.7315 63.8693 50.0554 63.3807 50.2713 62.8011L57.9247 63.0227C57.6065 64.7386 56.9077 66.233 55.8281 67.5057C54.7599 68.767 53.3565 69.75 51.6179 70.4545C49.8793 71.1477 47.8679 71.4943 45.5838 71.4943ZM77.0455 44.8182V50.9545H60.5284V44.8182H77.0455ZM63.9886 38.5455H72.3239V62.767C72.3239 63.2784 72.4034 63.6932 72.5625 64.0114C72.733 64.3182 72.9773 64.5398 73.2955 64.6761C73.6136 64.8011 73.9943 64.8636 74.4375 64.8636C74.7557 64.8636 75.0909 64.8352 75.4432 64.7784C75.8068 64.7102 76.0795 64.6534 76.2614 64.608L77.5227 70.625C77.125 70.7386 76.5625 70.8807 75.8352 71.0511C75.1193 71.2216 74.2614 71.3295 73.2614 71.375C71.3068 71.4659 69.6307 71.2386 68.233 70.6932C66.8466 70.1364 65.7841 69.2727 65.0455 68.1023C64.3182 66.9318 63.9659 65.4602 63.9886 63.6875V38.5455ZM103.832 71.4943C101.071 71.4943 98.7017 70.9261 96.7244 69.7898C94.7585 68.6534 93.2472 67.0739 92.1903 65.0511C91.1335 63.017 90.6051 60.6648 90.6051 57.9943C90.6051 55.3125 91.1335 52.9602 92.1903 50.9375C93.2585 48.9034 94.7756 47.3182 96.7415 46.1818C98.7188 45.0455 101.077 44.4773 103.815 44.4773C106.236 44.4773 108.344 44.9148 110.139 45.7898C111.946 46.6648 113.355 47.9034 114.366 49.5057C115.389 51.0966 115.929 52.9659 115.986 55.1136H108.196C108.037 53.7727 107.582 52.7216 106.832 51.9602C106.094 51.1989 105.128 50.8182 103.935 50.8182C102.969 50.8182 102.122 51.0909 101.395 51.6364C100.668 52.1705 100.099 52.9659 99.6903 54.0227C99.2926 55.0682 99.0938 56.3636 99.0938 57.9091C99.0938 59.4545 99.2926 60.7614 99.6903 61.8295C100.099 62.8864 100.668 63.6875 101.395 64.233C102.122 64.767 102.969 65.0341 103.935 65.0341C104.707 65.0341 105.389 64.8693 105.98 64.5398C106.582 64.2102 107.077 63.7273 107.463 63.0909C107.849 62.4432 108.094 61.6591 108.196 60.7386H115.986C115.906 62.8977 115.366 64.7841 114.366 66.3977C113.378 68.0114 111.986 69.267 110.19 70.1648C108.406 71.0511 106.287 71.4943 103.832 71.4943ZM127.632 71.4432C125.962 71.4432 124.479 71.1648 123.183 70.608C121.899 70.0398 120.882 69.1875 120.132 68.0511C119.393 66.9034 119.024 65.4659 119.024 63.7386C119.024 62.2841 119.28 61.0568 119.791 60.0568C120.303 59.0568 121.007 58.2443 121.905 57.6193C122.803 56.9943 123.837 56.5227 125.007 56.2045C126.178 55.875 127.428 55.6534 128.757 55.5398C130.246 55.4034 131.445 55.2614 132.354 55.1136C133.263 54.9545 133.922 54.733 134.331 54.4489C134.751 54.1534 134.962 53.7386 134.962 53.2045V53.1193C134.962 52.2443 134.661 51.5682 134.058 51.0909C133.456 50.6136 132.643 50.375 131.621 50.375C130.518 50.375 129.632 50.6136 128.962 51.0909C128.291 51.5682 127.865 52.2273 127.683 53.0682L119.996 52.7955C120.223 51.2045 120.808 49.7841 121.751 48.5341C122.706 47.2727 124.013 46.2841 125.672 45.5682C127.342 44.8409 129.348 44.4773 131.689 44.4773C133.359 44.4773 134.899 44.6761 136.308 45.0739C137.717 45.4602 138.945 46.0284 139.99 46.7784C141.036 47.517 141.842 48.4261 142.411 49.5057C142.99 50.5852 143.28 51.8182 143.28 53.2045V71H135.439V67.3523H135.234C134.768 68.2386 134.172 68.9886 133.445 69.6023C132.729 70.2159 131.882 70.6761 130.905 70.983C129.939 71.2898 128.848 71.4432 127.632 71.4432ZM130.206 65.9886C131.104 65.9886 131.911 65.8068 132.626 65.4432C133.354 65.0795 133.933 64.5795 134.365 63.9432C134.797 63.2955 135.013 62.5455 135.013 61.6932V59.2045C134.774 59.3295 134.484 59.4432 134.143 59.5455C133.814 59.6477 133.45 59.7443 133.053 59.8352C132.655 59.9261 132.246 60.0057 131.825 60.0739C131.405 60.142 131.001 60.2045 130.615 60.2614C129.831 60.3864 129.161 60.5795 128.604 60.8409C128.058 61.1023 127.638 61.4432 127.342 61.8636C127.058 62.2727 126.916 62.7614 126.916 63.3295C126.916 64.1932 127.223 64.8523 127.837 65.3068C128.462 65.7614 129.251 65.9886 130.206 65.9886ZM148.376 71V44.8182H156.473V49.5909H156.746C157.223 47.8636 158.001 46.5795 159.081 45.7386C160.161 44.8864 161.416 44.4602 162.848 44.4602C163.234 44.4602 163.632 44.4886 164.041 44.5455C164.45 44.5909 164.831 44.6648 165.183 44.767V52.0114C164.786 51.875 164.263 51.767 163.615 51.6875C162.979 51.608 162.411 51.5682 161.911 51.5682C160.922 51.5682 160.03 51.7898 159.234 52.233C158.45 52.6648 157.831 53.2727 157.376 54.0568C156.933 54.8295 156.712 55.7386 156.712 56.7841V71H148.376ZM179.459 71.4943C176.72 71.4943 174.357 70.9545 172.368 69.875C170.391 68.7841 168.868 67.233 167.8 65.2216C166.743 63.1989 166.214 60.7955 166.214 58.0114C166.214 55.3068 166.749 52.9432 167.817 50.9205C168.885 48.8864 170.391 47.3068 172.334 46.1818C174.277 45.0455 176.567 44.4773 179.203 44.4773C181.067 44.4773 182.771 44.767 184.317 45.3466C185.862 45.9261 187.197 46.7841 188.322 47.9205C189.447 49.0568 190.322 50.4602 190.947 52.1307C191.572 53.7898 191.885 55.6932 191.885 57.8409V59.9205H169.129V55.0795H184.129C184.118 54.1932 183.908 53.4034 183.499 52.7102C183.089 52.017 182.527 51.4773 181.811 51.0909C181.107 50.6932 180.294 50.4943 179.374 50.4943C178.442 50.4943 177.607 50.7045 176.868 51.125C176.129 51.5341 175.544 52.0966 175.112 52.8125C174.68 53.517 174.453 54.3182 174.43 55.2159V60.142C174.43 61.2102 174.641 62.1477 175.061 62.9545C175.482 63.75 176.078 64.3693 176.851 64.8125C177.624 65.2557 178.544 65.4773 179.612 65.4773C180.351 65.4773 181.021 65.375 181.624 65.1705C182.226 64.9659 182.743 64.6648 183.175 64.267C183.607 63.8693 183.93 63.3807 184.146 62.8011L191.8 63.0227C191.482 64.7386 190.783 66.233 189.703 67.5057C188.635 68.767 187.232 69.75 185.493 70.4545C183.754 71.1477 181.743 71.4943 179.459 71.4943Z" fill="white"/>
<path d="M27.7159 83.1236C27.0256 83.1236 26.4332 82.9815 25.9389 82.6974C25.4474 82.4134 25.0696 82.0185 24.8054 81.5128C24.5412 81.0043 24.4091 80.4162 24.4091 79.7486C24.4091 79.0781 24.5412 78.4901 24.8054 77.9844C25.0724 77.4759 25.4517 77.0795 25.9432 76.7955C26.4375 76.5114 27.027 76.3693 27.7116 76.3693C28.3168 76.3693 28.8438 76.4787 29.2926 76.6974C29.7443 76.9162 30.0966 77.2259 30.3494 77.6264C30.6051 78.0241 30.7401 78.4915 30.7543 79.0284H28.8068C28.767 78.6932 28.6534 78.4304 28.4659 78.2401C28.2813 78.0497 28.0398 77.9545 27.7415 77.9545C27.5 77.9545 27.2884 78.0227 27.1065 78.1591C26.9247 78.2926 26.7827 78.4915 26.6804 78.7557C26.581 79.017 26.5312 79.3409 26.5312 79.7273C26.5312 80.1136 26.581 80.4403 26.6804 80.7074C26.7827 80.9716 26.9247 81.1719 27.1065 81.3082C27.2884 81.4418 27.5 81.5085 27.7415 81.5085C27.9347 81.5085 28.1051 81.4673 28.2528 81.3849C28.4034 81.3026 28.527 81.1818 28.6236 81.0227C28.7202 80.8608 28.7812 80.6648 28.8068 80.4347H30.7543C30.7344 80.9744 30.5994 81.446 30.3494 81.8494C30.1023 82.2528 29.7543 82.5668 29.3054 82.7912C28.8594 83.0128 28.3295 83.1236 27.7159 83.1236ZM34.8761 83.1236C34.1886 83.1236 33.5977 82.983 33.1033 82.7017C32.6119 82.4176 32.2326 82.0227 31.9656 81.517C31.7013 81.0085 31.5692 80.419 31.5692 79.7486C31.5692 79.0753 31.7013 78.4858 31.9656 77.9801C32.2326 77.4716 32.6119 77.0767 33.1033 76.7955C33.5977 76.5114 34.1886 76.3693 34.8761 76.3693C35.5636 76.3693 36.1531 76.5114 36.6445 76.7955C37.1388 77.0767 37.5181 77.4716 37.7823 77.9801C38.0494 78.4858 38.1829 79.0753 38.1829 79.7486C38.1829 80.419 38.0494 81.0085 37.7823 81.517C37.5181 82.0227 37.1388 82.4176 36.6445 82.7017C36.1531 82.983 35.5636 83.1236 34.8761 83.1236ZM34.8888 81.5511C35.1388 81.5511 35.3505 81.4744 35.5238 81.321C35.6971 81.1676 35.8292 80.9545 35.9201 80.6818C36.0138 80.4091 36.0607 80.0937 36.0607 79.7358C36.0607 79.3722 36.0138 79.054 35.9201 78.7812C35.8292 78.5085 35.6971 78.2955 35.5238 78.142C35.3505 77.9886 35.1388 77.9119 34.8888 77.9119C34.6303 77.9119 34.4116 77.9886 34.2326 78.142C34.0565 78.2955 33.9215 78.5085 33.8278 78.7812C33.7369 79.054 33.6914 79.3722 33.6914 79.7358C33.6914 80.0937 33.7369 80.4091 33.8278 80.6818C33.9215 80.9545 34.0565 81.1676 34.2326 81.321C34.4116 81.4744 34.6303 81.5511 34.8888 81.5511ZM41.3342 79.267V83H39.2504V76.4545H41.2319V77.6562H41.3043C41.4492 77.2557 41.6964 76.9418 42.0458 76.7145C42.3952 76.4844 42.8114 76.3693 43.2944 76.3693C43.7546 76.3693 44.1538 76.473 44.4918 76.6804C44.8327 76.8849 45.0969 77.1719 45.2844 77.5412C45.4748 77.9077 45.5685 78.3366 45.5657 78.8281V83H43.4819V79.2372C43.4847 78.8736 43.3924 78.5895 43.2049 78.3849C43.0202 78.1804 42.7631 78.0781 42.4336 78.0781C42.2148 78.0781 42.0217 78.1264 41.854 78.223C41.6893 78.3168 41.5614 78.4517 41.4705 78.6278C41.3825 78.804 41.337 79.017 41.3342 79.267ZM50.5504 76.4545V77.9886H46.4212V76.4545H50.5504ZM47.2862 74.8864H49.37V80.9418C49.37 81.0696 49.3899 81.1733 49.4297 81.2528C49.4723 81.3295 49.5334 81.3849 49.6129 81.419C49.6925 81.4503 49.7876 81.4659 49.8984 81.4659C49.978 81.4659 50.0618 81.4588 50.1499 81.4446C50.2408 81.4276 50.3089 81.4134 50.3544 81.402L50.6697 82.9062C50.5703 82.9347 50.4297 82.9702 50.2479 83.0128C50.0689 83.0554 49.8544 83.0824 49.6044 83.0938C49.1158 83.1165 48.6967 83.0597 48.3473 82.9233C48.0007 82.7841 47.7351 82.5682 47.5504 82.2756C47.3686 81.983 47.2805 81.6151 47.2862 81.1719V74.8864ZM51.6136 83V76.4545H53.6378V77.6477H53.706C53.8253 77.2159 54.0199 76.8949 54.2898 76.6847C54.5597 76.4716 54.8736 76.3651 55.2315 76.3651C55.3281 76.3651 55.4276 76.3722 55.5298 76.3864C55.6321 76.3977 55.7273 76.4162 55.8153 76.4418V78.2528C55.7159 78.2187 55.5852 78.1918 55.4233 78.1719C55.2642 78.152 55.1222 78.142 54.9972 78.142C54.75 78.142 54.527 78.1974 54.3281 78.3082C54.1321 78.4162 53.9773 78.5682 53.8636 78.7642C53.7528 78.9574 53.6974 79.1847 53.6974 79.446V83H51.6136ZM59.38 83.1236C58.6925 83.1236 58.1016 82.983 57.6072 82.7017C57.1158 82.4176 56.7365 82.0227 56.4695 81.517C56.2053 81.0085 56.0732 80.419 56.0732 79.7486C56.0732 79.0753 56.2053 78.4858 56.4695 77.9801C56.7365 77.4716 57.1158 77.0767 57.6072 76.7955C58.1016 76.5114 58.6925 76.3693 59.38 76.3693C60.0675 76.3693 60.657 76.5114 61.1484 76.7955C61.6428 77.0767 62.022 77.4716 62.2862 77.9801C62.5533 78.4858 62.6868 79.0753 62.6868 79.7486C62.6868 80.419 62.5533 81.0085 62.2862 81.517C62.022 82.0227 61.6428 82.4176 61.1484 82.7017C60.657 82.983 60.0675 83.1236 59.38 83.1236ZM59.3928 81.5511C59.6428 81.5511 59.8544 81.4744 60.0277 81.321C60.201 81.1676 60.3331 80.9545 60.424 80.6818C60.5178 80.4091 60.5646 80.0937 60.5646 79.7358C60.5646 79.3722 60.5178 79.054 60.424 78.7812C60.3331 78.5085 60.201 78.2955 60.0277 78.142C59.8544 77.9886 59.6428 77.9119 59.3928 77.9119C59.1342 77.9119 58.9155 77.9886 58.7365 78.142C58.5604 78.2955 58.4254 78.5085 58.3317 78.7812C58.2408 79.054 58.1953 79.3722 58.1953 79.7358C58.1953 80.0937 58.2408 80.4091 58.3317 80.6818C58.4254 80.9545 58.5604 81.1676 58.7365 81.321C58.9155 81.4744 59.1342 81.5511 59.3928 81.5511ZM65.8381 74.2727V83H63.7543V74.2727H65.8381ZM70.2241 83.1236C69.5394 83.1236 68.9485 82.9886 68.4513 82.7188C67.957 82.446 67.5763 82.0582 67.3093 81.5554C67.0451 81.0497 66.913 80.4489 66.913 79.7528C66.913 79.0767 67.0465 78.4858 67.3136 77.9801C67.5806 77.4716 67.957 77.0767 68.4428 76.7955C68.9286 76.5114 69.5011 76.3693 70.1602 76.3693C70.6261 76.3693 71.0522 76.4418 71.4386 76.5866C71.8249 76.7315 72.1587 76.946 72.44 77.2301C72.7212 77.5142 72.94 77.8651 73.0962 78.2827C73.2525 78.6974 73.3306 79.1733 73.3306 79.7102V80.2301H67.6417V79.0199H71.3917C71.3888 78.7983 71.3363 78.6009 71.234 78.4276C71.1317 78.2543 70.9911 78.1193 70.8121 78.0227C70.636 77.9233 70.4329 77.8736 70.2028 77.8736C69.9698 77.8736 69.761 77.9261 69.5763 78.0312C69.3917 78.1335 69.2454 78.2741 69.1374 78.4531C69.0295 78.6293 68.9727 78.8295 68.967 79.054V80.2855C68.967 80.5526 69.0195 80.7869 69.1246 80.9886C69.2298 81.1875 69.3789 81.3423 69.5721 81.4531C69.7653 81.5639 69.9954 81.6193 70.2624 81.6193C70.4471 81.6193 70.6147 81.5937 70.7653 81.5426C70.9158 81.4915 71.0451 81.4162 71.1531 81.3168C71.261 81.2173 71.342 81.0952 71.396 80.9503L73.3093 81.0057C73.2298 81.4347 73.055 81.8082 72.7852 82.1264C72.5181 82.4418 72.1673 82.6875 71.7326 82.8636C71.2979 83.0369 70.7951 83.1236 70.2241 83.1236ZM79.3636 83.0938C78.8807 83.0938 78.4418 82.9688 78.0469 82.7188C77.652 82.4688 77.3366 82.0938 77.1009 81.5938C76.8651 81.0938 76.7472 80.473 76.7472 79.7315C76.7472 78.9616 76.8693 78.3281 77.1136 77.831C77.358 77.3338 77.6776 76.9659 78.0724 76.7273C78.4702 76.4886 78.8977 76.3693 79.3551 76.3693C79.6989 76.3693 79.9929 76.429 80.2372 76.5483C80.4815 76.6648 80.6832 76.8153 80.8423 77C81.0014 77.1847 81.1222 77.3764 81.2045 77.5753H81.2472V74.2727H83.331V83H81.2685V81.9389H81.2045C81.1165 82.1406 80.9915 82.3295 80.8295 82.5057C80.6676 82.6818 80.4645 82.8239 80.2202 82.9318C79.9787 83.0398 79.6932 83.0938 79.3636 83.0938ZM80.0881 81.4702C80.3409 81.4702 80.5568 81.3991 80.7358 81.2571C80.9148 81.1122 81.0526 80.9091 81.1491 80.6477C81.2457 80.3864 81.294 80.0795 81.294 79.7273C81.294 79.3693 81.2457 79.0611 81.1491 78.8026C81.0554 78.544 80.9176 78.3452 80.7358 78.206C80.5568 78.0668 80.3409 77.9972 80.0881 77.9972C79.8295 77.9972 79.6108 78.0682 79.4318 78.2102C79.2528 78.3523 79.1165 78.5526 79.0227 78.8111C78.9318 79.0696 78.8864 79.375 78.8864 79.7273C78.8864 80.0795 78.9332 80.3864 79.027 80.6477C79.1207 80.9091 79.2557 81.1122 79.4318 81.2571C79.6108 81.3991 79.8295 81.4702 80.0881 81.4702ZM87.7085 83.1236C87.0238 83.1236 86.4329 82.9886 85.9357 82.7188C85.4414 82.446 85.0607 82.0582 84.7937 81.5554C84.5295 81.0497 84.3974 80.4489 84.3974 79.7528C84.3974 79.0767 84.5309 78.4858 84.7979 77.9801C85.065 77.4716 85.4414 77.0767 85.9272 76.7955C86.413 76.5114 86.9854 76.3693 87.6445 76.3693C88.1104 76.3693 88.5366 76.4418 88.9229 76.5866C89.3093 76.7315 89.6431 76.946 89.9244 77.2301C90.2056 77.5142 90.4244 77.8651 90.5806 78.2827C90.7369 78.6974 90.815 79.1733 90.815 79.7102V80.2301H85.1261V79.0199H88.8761C88.8732 78.7983 88.8207 78.6009 88.7184 78.4276C88.6161 78.2543 88.4755 78.1193 88.2965 78.0227C88.1204 77.9233 87.9173 77.8736 87.6871 77.8736C87.4542 77.8736 87.2454 77.9261 87.0607 78.0312C86.8761 78.1335 86.7298 78.2741 86.6218 78.4531C86.5138 78.6293 86.457 78.8295 86.4513 79.054V80.2855C86.4513 80.5526 86.5039 80.7869 86.609 80.9886C86.7141 81.1875 86.8633 81.3423 87.0565 81.4531C87.2496 81.5639 87.4798 81.6193 87.7468 81.6193C87.9315 81.6193 88.0991 81.5937 88.2496 81.5426C88.4002 81.4915 88.5295 81.4162 88.6374 81.3168C88.7454 81.2173 88.8263 81.0952 88.8803 80.9503L90.7937 81.0057C90.7141 81.4347 90.5394 81.8082 90.2695 82.1264C90.0025 82.4418 89.6516 82.6875 89.217 82.8636C88.7823 83.0369 88.2795 83.1236 87.7085 83.1236ZM97.5128 83.1236C96.8224 83.1236 96.2301 82.9815 95.7358 82.6974C95.2443 82.4134 94.8665 82.0185 94.6023 81.5128C94.3381 81.0043 94.206 80.4162 94.206 79.7486C94.206 79.0781 94.3381 78.4901 94.6023 77.9844C94.8693 77.4759 95.2486 77.0795 95.7401 76.7955C96.2344 76.5114 96.8239 76.3693 97.5085 76.3693C98.1136 76.3693 98.6406 76.4787 99.0895 76.6974C99.5412 76.9162 99.8935 77.2259 100.146 77.6264C100.402 78.0241 100.537 78.4915 100.551 79.0284H98.6037C98.5639 78.6932 98.4503 78.4304 98.2628 78.2401C98.0781 78.0497 97.8366 77.9545 97.5384 77.9545C97.2969 77.9545 97.0852 78.0227 96.9034 78.1591C96.7216 78.2926 96.5795 78.4915 96.4773 78.7557C96.3778 79.017 96.3281 79.3409 96.3281 79.7273C96.3281 80.1136 96.3778 80.4403 96.4773 80.7074C96.5795 80.9716 96.7216 81.1719 96.9034 81.3082C97.0852 81.4418 97.2969 81.5085 97.5384 81.5085C97.7315 81.5085 97.902 81.4673 98.0497 81.3849C98.2003 81.3026 98.3239 81.1818 98.4205 81.0227C98.517 80.8608 98.5781 80.6648 98.6037 80.4347H100.551C100.531 80.9744 100.396 81.446 100.146 81.8494C99.8991 82.2528 99.5511 82.5668 99.1023 82.7912C98.6563 83.0128 98.1264 83.1236 97.5128 83.1236ZM105.841 80.1747V76.4545H107.92V83H105.934V81.7812H105.866C105.721 82.1818 105.474 82.5 105.125 82.7358C104.778 82.9687 104.359 83.0852 103.868 83.0852C103.422 83.0852 103.029 82.983 102.691 82.7784C102.353 82.5739 102.091 82.2884 101.903 81.9219C101.716 81.5526 101.62 81.1207 101.618 80.6264V76.4545H103.701V80.2173C103.704 80.5724 103.798 80.8523 103.983 81.0568C104.167 81.2614 104.419 81.3636 104.737 81.3636C104.944 81.3636 105.13 81.3182 105.295 81.2273C105.463 81.1335 105.595 80.9986 105.691 80.8224C105.791 80.6435 105.841 80.4276 105.841 80.1747ZM109.246 83V76.4545H111.33V83H109.246ZM110.29 75.6918C109.998 75.6918 109.746 75.5952 109.536 75.402C109.326 75.206 109.221 74.9702 109.221 74.6946C109.221 74.4219 109.326 74.1889 109.536 73.9957C109.746 73.7997 109.998 73.7017 110.29 73.7017C110.586 73.7017 110.837 73.7997 111.045 73.9957C111.255 74.1889 111.36 74.4219 111.36 74.6946C111.36 74.9702 111.255 75.206 111.045 75.402C110.837 75.5952 110.586 75.6918 110.29 75.6918ZM115.047 83.0938C114.564 83.0938 114.125 82.9688 113.73 82.7188C113.336 82.4688 113.02 82.0938 112.784 81.5938C112.549 81.0938 112.431 80.473 112.431 79.7315C112.431 78.9616 112.553 78.3281 112.797 77.831C113.042 77.3338 113.361 76.9659 113.756 76.7273C114.154 76.4886 114.581 76.3693 115.039 76.3693C115.382 76.3693 115.676 76.429 115.921 76.5483C116.165 76.6648 116.367 76.8153 116.526 77C116.685 77.1847 116.806 77.3764 116.888 77.5753H116.931V74.2727H119.015V83H116.952V81.9389H116.888C116.8 82.1406 116.675 82.3295 116.513 82.5057C116.351 82.6818 116.148 82.8239 115.904 82.9318C115.662 83.0398 115.377 83.0938 115.047 83.0938ZM115.772 81.4702C116.025 81.4702 116.24 81.3991 116.419 81.2571C116.598 81.1122 116.736 80.9091 116.833 80.6477C116.929 80.3864 116.978 80.0795 116.978 79.7273C116.978 79.3693 116.929 79.0611 116.833 78.8026C116.739 78.544 116.601 78.3452 116.419 78.206C116.24 78.0668 116.025 77.9972 115.772 77.9972C115.513 77.9972 115.294 78.0682 115.115 78.2102C114.936 78.3523 114.8 78.5526 114.706 78.8111C114.615 79.0696 114.57 79.375 114.57 79.7273C114.57 80.0795 114.617 80.3864 114.711 80.6477C114.804 80.9091 114.939 81.1122 115.115 81.2571C115.294 81.3991 115.513 81.4702 115.772 81.4702ZM122.178 83.1108C121.76 83.1108 121.389 83.0412 121.065 82.902C120.744 82.7599 120.49 82.5469 120.303 82.2628C120.118 81.9759 120.026 81.6165 120.026 81.1847C120.026 80.821 120.089 80.5142 120.217 80.2642C120.345 80.0142 120.521 79.8111 120.746 79.6548C120.97 79.4986 121.229 79.3807 121.521 79.3011C121.814 79.2187 122.126 79.1634 122.459 79.1349C122.831 79.1009 123.131 79.0653 123.358 79.0284C123.585 78.9886 123.75 78.9332 123.852 78.8622C123.957 78.7884 124.01 78.6847 124.01 78.5511V78.5298C124.01 78.3111 123.935 78.142 123.784 78.0227C123.634 77.9034 123.43 77.8438 123.175 77.8438C122.899 77.8438 122.678 77.9034 122.51 78.0227C122.342 78.142 122.236 78.3068 122.19 78.517L120.268 78.4489C120.325 78.0511 120.472 77.696 120.707 77.3835C120.946 77.0682 121.273 76.821 121.688 76.642C122.105 76.4602 122.607 76.3693 123.192 76.3693C123.609 76.3693 123.994 76.419 124.347 76.5185C124.699 76.6151 125.006 76.7571 125.267 76.9446C125.528 77.1293 125.73 77.3565 125.872 77.6264C126.017 77.8963 126.089 78.2045 126.089 78.5511V83H124.129V82.0881H124.078C123.962 82.3097 123.813 82.4972 123.631 82.6506C123.452 82.804 123.24 82.919 122.996 82.9957C122.754 83.0724 122.482 83.1108 122.178 83.1108ZM122.821 81.7472C123.045 81.7472 123.247 81.7017 123.426 81.6108C123.608 81.5199 123.753 81.3949 123.861 81.2358C123.969 81.0739 124.023 80.8864 124.023 80.6733V80.0511C123.963 80.0824 123.891 80.1108 123.805 80.1364C123.723 80.1619 123.632 80.1861 123.533 80.2088C123.433 80.2315 123.331 80.2514 123.226 80.2685C123.121 80.2855 123.02 80.3011 122.923 80.3153C122.727 80.3466 122.56 80.3949 122.42 80.4602C122.284 80.5256 122.179 80.6108 122.105 80.7159C122.034 80.8182 121.999 80.9403 121.999 81.0824C121.999 81.2983 122.075 81.4631 122.229 81.5767C122.385 81.6903 122.582 81.7472 122.821 81.7472ZM129.754 83.0938C129.271 83.0938 128.832 82.9688 128.438 82.7188C128.043 82.4688 127.727 82.0938 127.491 81.5938C127.256 81.0938 127.138 80.473 127.138 79.7315C127.138 78.9616 127.26 78.3281 127.504 77.831C127.749 77.3338 128.068 76.9659 128.463 76.7273C128.861 76.4886 129.288 76.3693 129.746 76.3693C130.089 76.3693 130.384 76.429 130.628 76.5483C130.872 76.6648 131.074 76.8153 131.233 77C131.392 77.1847 131.513 77.3764 131.595 77.5753H131.638V74.2727H133.722V83H131.659V81.9389H131.595C131.507 82.1406 131.382 82.3295 131.22 82.5057C131.058 82.6818 130.855 82.8239 130.611 82.9318C130.369 83.0398 130.084 83.0938 129.754 83.0938ZM130.479 81.4702C130.732 81.4702 130.947 81.3991 131.126 81.2571C131.305 81.1122 131.443 80.9091 131.54 80.6477C131.636 80.3864 131.685 80.0795 131.685 79.7273C131.685 79.3693 131.636 79.0611 131.54 78.8026C131.446 78.544 131.308 78.3452 131.126 78.206C130.947 78.0668 130.732 77.9972 130.479 77.9972C130.22 77.9972 130.001 78.0682 129.822 78.2102C129.643 78.3523 129.507 78.5526 129.413 78.8111C129.322 79.0696 129.277 79.375 129.277 79.7273C129.277 80.0795 129.324 80.3864 129.418 80.6477C129.511 80.9091 129.646 81.1122 129.822 81.2571C130.001 81.3991 130.22 81.4702 130.479 81.4702ZM138.095 83.1236C137.407 83.1236 136.816 82.983 136.322 82.7017C135.831 82.4176 135.451 82.0227 135.184 81.517C134.92 81.0085 134.788 80.419 134.788 79.7486C134.788 79.0753 134.92 78.4858 135.184 77.9801C135.451 77.4716 135.831 77.0767 136.322 76.7955C136.816 76.5114 137.407 76.3693 138.095 76.3693C138.782 76.3693 139.372 76.5114 139.863 76.7955C140.358 77.0767 140.737 77.4716 141.001 77.9801C141.268 78.4858 141.402 79.0753 141.402 79.7486C141.402 80.419 141.268 81.0085 141.001 81.517C140.737 82.0227 140.358 82.4176 139.863 82.7017C139.372 82.983 138.782 83.1236 138.095 83.1236ZM138.108 81.5511C138.358 81.5511 138.569 81.4744 138.743 81.321C138.916 81.1676 139.048 80.9545 139.139 80.6818C139.233 80.4091 139.279 80.0937 139.279 79.7358C139.279 79.3722 139.233 79.054 139.139 78.7812C139.048 78.5085 138.916 78.2955 138.743 78.142C138.569 77.9886 138.358 77.9119 138.108 77.9119C137.849 77.9119 137.63 77.9886 137.451 78.142C137.275 78.2955 137.14 78.5085 137.047 78.7812C136.956 79.054 136.91 79.3722 136.91 79.7358C136.91 80.0937 136.956 80.4091 137.047 80.6818C137.14 80.9545 137.275 81.1676 137.451 81.321C137.63 81.4744 137.849 81.5511 138.108 81.5511ZM148.184 78.4531L146.27 78.5043C146.25 78.3679 146.196 78.2472 146.108 78.142C146.02 78.0341 145.905 77.9503 145.763 77.8906C145.624 77.8281 145.462 77.7969 145.277 77.7969C145.036 77.7969 144.83 77.8452 144.659 77.9418C144.492 78.0384 144.409 78.169 144.412 78.3338C144.409 78.4616 144.461 78.5724 144.566 78.6662C144.674 78.7599 144.865 78.8352 145.141 78.892L146.402 79.1307C147.056 79.2557 147.542 79.4631 147.86 79.7528C148.181 80.0426 148.343 80.4261 148.346 80.9034C148.343 81.3523 148.209 81.7429 147.945 82.0753C147.684 82.4077 147.326 82.6662 146.871 82.8509C146.417 83.0327 145.897 83.1236 145.311 83.1236C144.377 83.1236 143.64 82.9318 143.1 82.5483C142.563 82.1619 142.256 81.6449 142.179 80.9972L144.238 80.946C144.283 81.1847 144.401 81.3665 144.591 81.4915C144.782 81.6165 145.025 81.679 145.32 81.679C145.587 81.679 145.804 81.6293 145.972 81.5298C146.14 81.4304 146.225 81.2983 146.228 81.1335C146.225 80.9858 146.159 80.8679 146.032 80.7798C145.904 80.6889 145.703 80.6179 145.431 80.5668L144.289 80.3494C143.632 80.2301 143.144 80.0099 142.823 79.6889C142.502 79.3651 142.343 78.9531 142.346 78.4531C142.343 78.0156 142.459 77.642 142.695 77.3324C142.931 77.0199 143.266 76.7812 143.701 76.6165C144.135 76.4517 144.648 76.3693 145.239 76.3693C146.125 76.3693 146.824 76.5554 147.336 76.9276C147.847 77.2969 148.13 77.8054 148.184 78.4531ZM154.34 83.0938C153.857 83.0938 153.418 82.9688 153.023 82.7188C152.629 82.4688 152.313 82.0938 152.077 81.5938C151.842 81.0938 151.724 80.473 151.724 79.7315C151.724 78.9616 151.846 78.3281 152.09 77.831C152.335 77.3338 152.654 76.9659 153.049 76.7273C153.447 76.4886 153.874 76.3693 154.332 76.3693C154.675 76.3693 154.969 76.429 155.214 76.5483C155.458 76.6648 155.66 76.8153 155.819 77C155.978 77.1847 156.099 77.3764 156.181 77.5753H156.224V74.2727H158.308V83H156.245V81.9389H156.181C156.093 82.1406 155.968 82.3295 155.806 82.5057C155.644 82.6818 155.441 82.8239 155.197 82.9318C154.955 83.0398 154.67 83.0938 154.34 83.0938ZM155.065 81.4702C155.317 81.4702 155.533 81.3991 155.712 81.2571C155.891 81.1122 156.029 80.9091 156.126 80.6477C156.222 80.3864 156.271 80.0795 156.271 79.7273C156.271 79.3693 156.222 79.0611 156.126 78.8026C156.032 78.544 155.894 78.3452 155.712 78.206C155.533 78.0668 155.317 77.9972 155.065 77.9972C154.806 77.9972 154.587 78.0682 154.408 78.2102C154.229 78.3523 154.093 78.5526 153.999 78.8111C153.908 79.0696 153.863 79.375 153.863 79.7273C153.863 80.0795 153.91 80.3864 154.004 80.6477C154.097 80.9091 154.232 81.1122 154.408 81.2571C154.587 81.3991 154.806 81.4702 155.065 81.4702ZM159.625 83V76.4545H161.709V83H159.625ZM160.669 75.6918C160.377 75.6918 160.125 75.5952 159.915 75.402C159.705 75.206 159.6 74.9702 159.6 74.6946C159.6 74.4219 159.705 74.1889 159.915 73.9957C160.125 73.7997 160.377 73.7017 160.669 73.7017C160.965 73.7017 161.216 73.7997 161.424 73.9957C161.634 74.1889 161.739 74.4219 161.739 74.6946C161.739 74.9702 161.634 75.206 161.424 75.402C161.216 75.5952 160.965 75.6918 160.669 75.6918ZM164.881 83.1108C164.463 83.1108 164.092 83.0412 163.768 82.902C163.447 82.7599 163.193 82.5469 163.006 82.2628C162.821 81.9759 162.729 81.6165 162.729 81.1847C162.729 80.821 162.793 80.5142 162.92 80.2642C163.048 80.0142 163.224 79.8111 163.449 79.6548C163.673 79.4986 163.932 79.3807 164.224 79.3011C164.517 79.2187 164.83 79.1634 165.162 79.1349C165.534 79.1009 165.834 79.0653 166.061 79.0284C166.288 78.9886 166.453 78.9332 166.555 78.8622C166.661 78.7884 166.713 78.6847 166.713 78.5511V78.5298C166.713 78.3111 166.638 78.142 166.487 78.0227C166.337 77.9034 166.134 77.8438 165.878 77.8438C165.602 77.8438 165.381 77.9034 165.213 78.0227C165.045 78.142 164.939 78.3068 164.893 78.517L162.972 78.4489C163.028 78.0511 163.175 77.696 163.411 77.3835C163.649 77.0682 163.976 76.821 164.391 76.642C164.808 76.4602 165.31 76.3693 165.895 76.3693C166.313 76.3693 166.697 76.419 167.05 76.5185C167.402 76.6151 167.709 76.7571 167.97 76.9446C168.232 77.1293 168.433 77.3565 168.575 77.6264C168.72 77.8963 168.793 78.2045 168.793 78.5511V83H166.832V82.0881H166.781C166.665 82.3097 166.516 82.4972 166.334 82.6506C166.155 82.804 165.943 82.919 165.699 82.9957C165.457 83.0724 165.185 83.1108 164.881 83.1108ZM165.524 81.7472C165.749 81.7472 165.95 81.7017 166.129 81.6108C166.311 81.5199 166.456 81.3949 166.564 81.2358C166.672 81.0739 166.726 80.8864 166.726 80.6733V80.0511C166.666 80.0824 166.594 80.1108 166.509 80.1364C166.426 80.1619 166.335 80.1861 166.236 80.2088C166.136 80.2315 166.034 80.2514 165.929 80.2685C165.824 80.2855 165.723 80.3011 165.626 80.3153C165.43 80.3466 165.263 80.3949 165.124 80.4602C164.987 80.5256 164.882 80.6108 164.808 80.7159C164.737 80.8182 164.702 80.9403 164.702 81.0824C164.702 81.2983 164.778 81.4631 164.932 81.5767C165.088 81.6903 165.286 81.7472 165.524 81.7472ZM165.247 75.6236L166.108 73.7017H167.953L166.666 75.6236H165.247ZM170.067 83V76.4545H172.091V77.6477H172.159C172.278 77.2159 172.473 76.8949 172.743 76.6847C173.013 76.4716 173.327 76.3651 173.685 76.3651C173.781 76.3651 173.881 76.3722 173.983 76.3864C174.085 76.3977 174.18 76.4162 174.268 76.4418V78.2528C174.169 78.2187 174.038 78.1918 173.876 78.1719C173.717 78.152 173.575 78.142 173.45 78.142C173.203 78.142 172.98 78.1974 172.781 78.3082C172.585 78.4162 172.43 78.5682 172.317 78.7642C172.206 78.9574 172.151 79.1847 172.151 79.446V83H170.067ZM175.118 83V76.4545H177.201V83H175.118ZM176.162 75.6918C175.869 75.6918 175.618 75.5952 175.407 75.402C175.197 75.206 175.092 74.9702 175.092 74.6946C175.092 74.4219 175.197 74.1889 175.407 73.9957C175.618 73.7997 175.869 73.7017 176.162 73.7017C176.457 73.7017 176.708 73.7997 176.916 73.9957C177.126 74.1889 177.231 74.4219 177.231 74.6946C177.231 74.9702 177.126 75.206 176.916 75.402C176.708 75.5952 176.457 75.6918 176.162 75.6918ZM181.583 83.1236C180.896 83.1236 180.305 82.983 179.81 82.7017C179.319 82.4176 178.94 82.0227 178.673 81.517C178.408 81.0085 178.276 80.419 178.276 79.7486C178.276 79.0753 178.408 78.4858 178.673 77.9801C178.94 77.4716 179.319 77.0767 179.81 76.7955C180.305 76.5114 180.896 76.3693 181.583 76.3693C182.271 76.3693 182.86 76.5114 183.352 76.7955C183.846 77.0767 184.225 77.4716 184.489 77.9801C184.756 78.4858 184.89 79.0753 184.89 79.7486C184.89 80.419 184.756 81.0085 184.489 81.517C184.225 82.0227 183.846 82.4176 183.352 82.7017C182.86 82.983 182.271 83.1236 181.583 83.1236ZM181.596 81.5511C181.846 81.5511 182.058 81.4744 182.231 81.321C182.404 81.1676 182.536 80.9545 182.627 80.6818C182.721 80.4091 182.768 80.0937 182.768 79.7358C182.768 79.3722 182.721 79.054 182.627 78.7812C182.536 78.5085 182.404 78.2955 182.231 78.142C182.058 77.9886 181.846 77.9119 181.596 77.9119C181.337 77.9119 181.119 77.9886 180.94 78.142C180.763 78.2955 180.629 78.5085 180.535 78.7812C180.444 79.054 180.398 79.3722 180.398 79.7358C180.398 80.0937 180.444 80.4091 180.535 80.6818C180.629 80.9545 180.763 81.1676 180.94 81.321C181.119 81.4744 181.337 81.5511 181.596 81.5511ZM191.672 78.4531L189.759 78.5043C189.739 78.3679 189.685 78.2472 189.597 78.142C189.509 78.0341 189.393 77.9503 189.251 77.8906C189.112 77.8281 188.95 77.7969 188.766 77.7969C188.524 77.7969 188.318 77.8452 188.148 77.9418C187.98 78.0384 187.898 78.169 187.901 78.3338C187.898 78.4616 187.949 78.5724 188.054 78.6662C188.162 78.7599 188.354 78.8352 188.629 78.892L189.891 79.1307C190.544 79.2557 191.03 79.4631 191.348 79.7528C191.669 80.0426 191.831 80.4261 191.834 80.9034C191.831 81.3523 191.697 81.7429 191.433 82.0753C191.172 82.4077 190.814 82.6662 190.359 82.8509C189.905 83.0327 189.385 83.1236 188.8 83.1236C187.865 83.1236 187.128 82.9318 186.588 82.5483C186.051 82.1619 185.744 81.6449 185.668 80.9972L187.726 80.946C187.771 81.1847 187.889 81.3665 188.08 81.4915C188.27 81.6165 188.513 81.679 188.808 81.679C189.075 81.679 189.293 81.6293 189.46 81.5298C189.628 81.4304 189.713 81.2983 189.716 81.1335C189.713 80.9858 189.648 80.8679 189.52 80.7798C189.392 80.6889 189.192 80.6179 188.919 80.5668L187.777 80.3494C187.121 80.2301 186.632 80.0099 186.311 79.6889C185.99 79.3651 185.831 78.9531 185.834 78.4531C185.831 78.0156 185.947 77.642 186.183 77.3324C186.419 77.0199 186.754 76.7812 187.189 76.6165C187.624 76.4517 188.136 76.3693 188.727 76.3693C189.614 76.3693 190.313 76.5554 190.824 76.9276C191.335 77.2969 191.618 77.8054 191.672 78.4531Z" fill="white"/>
<rect x="0.5" y="0.5" width="15" height="15" rx="3.5" fill="#18181B" stroke="#27272A"/>
<rect x="20.5" y="0.5" width="15" height="15" rx="3.5" fill="#4C1D95" stroke="#6D28D9"/>
<rect x="40.5" y="0.5" width="15" height="15" rx="3.5" fill="#5B21B6" stroke="#7C3AED"/>
<rect x="60.5" y="0.5" width="15" height="15" rx="3.5" fill="#6D28D9" stroke="#8B5CF6"/>
<rect x="80.5" y="0.5" width="15" height="15" rx="3.5" fill="#7C3AED" stroke="#A78BFA"/>
<rect x="100.5" y="0.5" width="15" height="15" rx="3.5" fill="#8B5CF6" stroke="#C4B5FD"/>
</svg>
